999
dxflib 2.2.0.0
  0
SECTION
  2
HEADER
  9
$ACADVER
  1
AC1015
  9
$HANDSEED
  5
FFFF
  9
$DIMASZ
 40
2.5
  9
$PLIMMIN
 10
0.0
 20
0.0
  9
$DIMEXE
 40
1.25
  9
$DIMGAP
 40
0.625
  9
$PLIMMAX
 10
210.0
 20
297.0
  9
$INSUNITS
 70
4
  9
$DIMSTYLE
  2
Standard
  9
$MEASUREMENT
 70
1
  9
$DIMEXO
 40
0.625
  9
$DIMTXT
 40
2.5
  0
ENDSEC
  0
SECTION
  2
TABLES
  0
TABLE
  2
VPORT
  5
8
100
AcDbSymbolTable
 70
1
  0
VPORT
  5
30
100
AcDbSymbolTableRecord
100
AcDbViewportTableRecord
  2
*Active
 70
0
 10
0.0
 20
0.0
 11
1.0
 21
1.0
 12
286.3055555555554861
 22
148.5
 13
0.0
 23
0.0
 14
10.0
 24
10.0
 15
10.0
 25
10.0
 16
0.0
 26
0.0
 36
1.0
 17
0.0
 27
0.0
 37
0.0
 40
297.0
 41
1.92798353909465
 42
50.0
 43
0.0
 44
0.0
 50
0.0
 51
0.0
 71
0
 72
100
 73
1
 74
3
 75
1
 76
1
 77
0
 78
0
281
0
 65
1
110
0.0
120
0.0
130
0.0
111
1.0
121
0.0
131
0.0
112
0.0
122
1.0
132
0.0
 79
0
146
0.0
  0
ENDTAB
  0
TABLE
  2
LTYPE
  5
5
100
AcDbSymbolTable
 70
21
  0
LTYPE
  5
14
100
AcDbSymbolTableRecord
100
AcDbLinetypeTableRecord
  2
ByBlock
 70
0
  3

 72
65
 73
0
 40
0.0
  0
LTYPE
  5
15
100
AcDbSymbolTableRecord
100
AcDbLinetypeTableRecord
  2
ByLayer
 70
0
  3

 72
65
 73
0
 40
0.0
  0
LTYPE
  5
16
100
AcDbSymbolTableRecord
100
AcDbLinetypeTableRecord
  2
CONTINUOUS
 70
0
  3
Solid line
 72
65
 73
0
 40
0.0
  0
LTYPE
  5
31
100
AcDbSymbolTableRecord
100
AcDbLinetypeTableRecord
  2
DOT
 70
0
  3
Dot . . . . . . . . . . . . . . . . . . . . . .
 72
65
 73
2
 40
6.3499999999999996
 49
0.0
 74
0
 49
-6.3499999999999996
 74
0
  0
LTYPE
  5
32
100
AcDbSymbolTableRecord
100
AcDbLinetypeTableRecord
  2
DOT2
 70
0
  3
Dot (.5x) .....................................
 72
65
 73
2
 40
3.1749999999999998
 49
0.0
 74
0
 49
-3.1749999999999998
 74
0
  0
LTYPE
  5
33
100
AcDbSymbolTableRecord
100
AcDbLinetypeTableRecord
  2
DOTX2
 70
0
  3
Dot (2x) .  .  .  .  .  .  .  .  .  .  .  .  .
 72
65
 73
2
 40
12.6999999999999993
 49
0.0
 74
0
 49
-12.6999999999999993
 74
0
  0
LTYPE
  5
34
100
AcDbSymbolTableRecord
100
AcDbLinetypeTableRecord
  2
DASHED
 70
0
  3
Dashed __ __ __ __ __ __ __ __ __ __ __ __ __ _
 72
65
 73
2
 40
19.0500000000000007
 49
12.6999999999999993
 74
0
 49
-6.3499999999999996
 74
0
  0
LTYPE
  5
35
100
AcDbSymbolTableRecord
100
AcDbLinetypeTableRecord
  2
DASHED2
 70
0
  3
Dashed (.5x) _ _ _ _ _ _ _ _ _ _ _ _ _ _ _ _ _
 72
65
 73
2
 40
9.5250000000000004
 49
6.3499999999999996
 74
0
 49
-3.1749999999999998
 74
0
  0
LTYPE
  5
36
100
AcDbSymbolTableRecord
100
AcDbLinetypeTableRecord
  2
DASHEDX2
 70
0
  3
Dashed (2x) ____  ____  ____  ____  ____  ___
 72
65
 73
2
 40
38.1000000000000014
 49
25.3999999999999986
 74
0
 49
-12.6999999999999993
 74
0
  0
LTYPE
  5
37
100
AcDbSymbolTableRecord
100
AcDbLinetypeTableRecord
  2
DASHDOT
 70
0
  3
Dash dot __ . __ . __ . __ . __ . __ . __ . __
 72
65
 73
4
 40
25.3999999999999986
 49
12.6999999999999993
 74
0
 49
-6.3499999999999996
 74
0
 49
0.0
 74
0
 49
-6.3499999999999996
 74
0
  0
LTYPE
  5
38
100
AcDbSymbolTableRecord
100
AcDbLinetypeTableRecord
  2
DASHDOT2
 70
0
  3
Dash dot (.5x) _._._._._._._._._._._._._._._.
 72
65
 73
4
 40
12.6999999999999993
 49
6.3499999999999996
 74
0
 49
-3.1749999999999998
 74
0
 49
0.0
 74
0
 49
-3.1749999999999998
 74
0
  0
LTYPE
  5
39
100
AcDbSymbolTableRecord
100
AcDbLinetypeTableRecord
  2
DASHDOTX2
 70
0
  3
Dash dot (2x) ____  .  ____  .  ____  .  ___
 72
65
 73
4
 40
50.7999999999999972
 49
25.3999999999999986
 74
0
 49
-12.6999999999999993
 74
0
 49
0.0
 74
0
 49
-12.6999999999999993
 74
0
  0
LTYPE
  5
3A
100
AcDbSymbolTableRecord
100
AcDbLinetypeTableRecord
  2
DIVIDE
 70
0
  3
Divide ____ . . ____ . . ____ . . ____ . . ____
 72
65
 73
6
 40
31.75
 49
12.6999999999999993
 74
0
 49
-6.3499999999999996
 74
0
 49
0.0
 74
0
 49
-6.3499999999999996
 74
0
 49
0.0
 74
0
 49
-6.3499999999999996
 74
0
  0
LTYPE
  5
3B
100
AcDbSymbolTableRecord
100
AcDbLinetypeTableRecord
  2
DIVIDE2
 70
0
  3
Divide (.5x) __..__..__..__..__..__..__..__.._
 72
65
 73
6
 40
15.875
 49
6.3499999999999996
 74
0
 49
-3.1749999999999998
 74
0
 49
0.0
 74
0
 49
-3.1749999999999998
 74
0
 49
0.0
 74
0
 49
-3.1749999999999998
 74
0
  0
LTYPE
  5
3C
100
AcDbSymbolTableRecord
100
AcDbLinetypeTableRecord
  2
DIVIDEX2
 70
0
  3
Divide (2x) ________  .  .  ________  .  .  _
 72
65
 73
6
 40
63.5
 49
25.3999999999999986
 74
0
 49
-12.6999999999999993
 74
0
 49
0.0
 74
0
 49
-12.6999999999999993
 74
0
 49
0.0
 74
0
 49
-12.6999999999999993
 74
0
  0
LTYPE
  5
3D
100
AcDbSymbolTableRecord
100
AcDbLinetypeTableRecord
  2
CENTER
 70
0
  3
Center ____ _ ____ _ ____ _ ____ _ ____ _ ____
 72
65
 73
4
 40
50.7999999999999972
 49
31.75
 74
0
 49
-6.3499999999999996
 74
0
 49
6.3499999999999996
 74
0
 49
-6.3499999999999996
 74
0
  0
LTYPE
  5
3E
100
AcDbSymbolTableRecord
100
AcDbLinetypeTableRecord
  2
CENTER2
 70
0
  3
Center (.5x) ___ _ ___ _ ___ _ ___ _ ___ _ ___
 72
65
 73
4
 40
28.5749999999999993
 49
19.0500000000000007
 74
0
 49
-3.1749999999999998
 74
0
 49
3.1749999999999998
 74
0
 49
-3.1749999999999998
 74
0
  0
LTYPE
  5
3F
100
AcDbSymbolTableRecord
100
AcDbLinetypeTableRecord
  2
CENTERX2
 70
0
  3
Center (2x) ________  __  ________  __  _____
 72
65
 73
4
 40
101.5999999999999943
 49
63.5
 74
0
 49
-12.6999999999999993
 74
0
 49
12.6999999999999993
 74
0
 49
-12.6999999999999993
 74
0
  0
LTYPE
  5
40
100
AcDbSymbolTableRecord
100
AcDbLinetypeTableRecord
  2
BORDER
 70
0
  3
Border __ __ . __ __ . __ __ . __ __ . __ __ .
 72
65
 73
6
 40
44.4500000000000028
 49
12.6999999999999993
 74
0
 49
-6.3499999999999996
 74
0
 49
12.6999999999999993
 74
0
 49
-6.3499999999999996
 74
0
 49
0.0
 74
0
 49
-6.3499999999999996
 74
0
  0
LTYPE
  5
41
100
AcDbSymbolTableRecord
100
AcDbLinetypeTableRecord
  2
BORDER2
 70
0
  3
Border (.5x) __.__.__.__.__.__.__.__.__.__.__.
 72
65
 73
6
 40
22.2250000000000014
 49
6.3499999999999996
 74
0
 49
-3.1749999999999998
 74
0
 49
6.3499999999999996
 74
0
 49
-3.1749999999999998
 74
0
 49
0.0
 74
0
 49
-3.1749999999999998
 74
0
  0
LTYPE
  5
42
100
AcDbSymbolTableRecord
100
AcDbLinetypeTableRecord
  2
BORDERX2
 70
0
  3
Border (2x) ____  ____  .  ____  ____  .  ___
 72
65
 73
6
 40
88.9000000000000057
 49
25.3999999999999986
 74
0
 49
-12.6999999999999993
 74
0
 49
25.3999999999999986
 74
0
 49
-12.6999999999999993
 74
0
 49
0.0
 74
0
 49
-12.6999999999999993
 74
0
  0
ENDTAB
  0
TABLE
  2
LAYER
  5
2
100
AcDbSymbolTable
 70
3
  0
LAYER
  5
10
100
AcDbSymbolTableRecord
100
AcDbLayerTableRecord
  2
0
 70
0
 62
7
  6
CONTINUOUS
370
0
390
F
  0
LAYER
  5
43
100
AcDbSymbolTableRecord
100
AcDbLayerTableRecord
  2
Gear68
 70
0
 62
7
  6
CONTINUOUS
390
F
  0
LAYER
  5
44
100
AcDbSymbolTableRecord
100
AcDbLayerTableRecord
  2
sizes
 70
0
 62
7
  6
CONTINUOUS
370
0
390
F
  0
ENDTAB
  0
TABLE
  2
STYLE
  5
3
100
AcDbSymbolTable
 70
1
  0
STYLE
  5
11
100
AcDbSymbolTableRecord
100
AcDbTextStyleTableRecord
  2
Standard
 70
0
 40
0.0
 41
0.75
 50
0.0
 71
0
 42
2.5
  3
txt
  4

  0
ENDTAB
  0
TABLE
  2
VIEW
  5
6
100
AcDbSymbolTable
 70
0
  0
ENDTAB
  0
TABLE
  2
UCS
  5
7
100
AcDbSymbolTable
 70
0
  0
ENDTAB
  0
TABLE
  2
APPID
  5
9
100
AcDbSymbolTable
 70
1
  0
APPID
  5
12
100
AcDbSymbolTableRecord
100
AcDbRegAppTableRecord
  2
ACAD
 70
0
  0
ENDTAB
  0
TABLE
  2
DIMSTYLE
  5
A
100
AcDbSymbolTable
 70
1
100
AcDbDimStyleTable
 71
0
  0
DIMSTYLE
105
27
100
AcDbSymbolTableRecord
100
AcDbDimStyleTableRecord
  2
Standard
 41
2.5
 42
0.625
 43
3.75
 44
1.25
 70
0
 73
0
 74
0
 77
1
 78
8
140
2.5
141
2.5
143
0.03937007874016
147
0.625
171
3
172
1
271
2
272
2
274
3
278
44
283
0
284
8
340
11
  0
ENDTAB
  0
TABLE
  2
BLOCK_RECORD
  5
1
100
AcDbSymbolTable
 70
1
  0
BLOCK_RECORD
  5
1F
100
AcDbSymbolTableRecord
100
AcDbBlockTableRecord
  2
*Model_Space
340
22
  0
BLOCK_RECORD
  5
1B
100
AcDbSymbolTableRecord
100
AcDbBlockTableRecord
  2
*Paper_Space
340
1E
  0
BLOCK_RECORD
  5
23
100
AcDbSymbolTableRecord
100
AcDbBlockTableRecord
  2
*Paper_Space0
340
26
  0
ENDTAB
  0
ENDSEC
  0
SECTION
  2
BLOCKS
  0
BLOCK
  5
20
100
AcDbEntity
  8
0
100
AcDbBlockBegin
  2
*Model_Space
 70
0
 10
0.0
 20
0.0
 30
0.0
  3
*Model_Space
  1

  0
ENDBLK
  5
21
100
AcDbEntity
  8
0
100
AcDbBlockEnd
  0
BLOCK
  5
1C
100
AcDbEntity
 67
1
  8
0
100
AcDbBlockBegin
  2
*Paper_Space
 70
0
 10
0.0
 20
0.0
 30
0.0
  3
*Paper_Space
  1

  0
ENDBLK
  5
1D
100
AcDbEntity
 67
1
  8
0
100
AcDbBlockEnd
  0
BLOCK
  5
24
100
AcDbEntity
  8
0
100
AcDbBlockBegin
  2
*Paper_Space0
 70
0
 10
0.0
 20
0.0
 30
0.0
  3
*Paper_Space0
  1

  0
ENDBLK
  5
25
100
AcDbEntity
  8
0
100
AcDbBlockEnd
  0
ENDSEC
  0
SECTION
  2
ENTITIES
  0
LWPOLYLINE
  5
45
  8
Gear68
 62
0
370
-1
  6
ByLayer
100
AcDbEntity
100
AcDbPolyline
 90
511
 70
0
 10
21.1037029999999994
 20
0.8294509999999988
 10
21.3643630000000009
 20
0.7054709999999957
 10
21.6244310000000013
 20
0.5724309999999946
 10
21.8837650000000004
 20
0.4305859999999981
 10
22.1422239999999988
 20
0.2801339999999968
 10
22.3996670000000009
 20
0.1211859999999945
 10
22.4000060000000012
 20
0.0
 10
22.3996670000000009
 20
-0.1211860000000016
 10
22.1422239999999988
 20
-0.2801340000000039
 10
21.8837650000000004
 20
-0.4305860000000052
 10
21.6244310000000013
 20
-0.5724310000000017
 10
21.3643630000000009
 20
-0.7054710000000028
 10
21.1037029999999994
 20
-0.8294510000000059
 10
21.0974660000000007
 20
-0.9753880000000024
 10
20.9174639999999989
 20
-2.9178670000000011
 10
20.8967780000000012
 20
-3.0624500000000054
 10
21.1302039999999991
 20
-3.2322350000000029
 10
21.3613999999999997
 20
-3.4107970000000023
 10
21.5902819999999984
 20
-3.5978540000000052
 10
21.8166809999999991
 20
-3.7932640000000006
 10
22.04054
 20
-3.9968029999999999
 10
22.0186109999999999
 20
-4.115985000000002
 10
21.9960050000000003
 20
-4.2350550000000027
 10
21.7137260000000012
 20
-4.3439930000000047
 10
21.4320400000000006
 20
-4.4444070000000053
 10
21.1510320000000007
 20
-4.5361860000000007
 10
20.8709540000000011
 20
-4.6191590000000033
 10
20.5919489999999996
 20
-4.6931300000000036
 10
20.5590140000000012
 20
-4.8354260000000053
 10
20.0251620000000017
 20
-6.7117520000000042
 10
19.9782569999999993
 20
-6.8500980000000027
 10
20.1765180000000015
 20
-7.0598740000000006
 10
20.3709689999999988
 20
-7.277862000000006
 10
20.561554000000001
 20
-7.5038090000000039
 10
20.7482159999999993
 20
-7.7374890000000036
 10
20.9308419999999984
 20
-7.9786760000000001
 10
20.8873800000000003
 20
-8.091819000000001
 10
20.8432959999999987
 20
-8.2047080000000037
 10
20.5458059999999989
 20
-8.2599110000000024
 10
20.2504600000000003
 20
-8.3068440000000052
 10
19.9573730000000005
 20
-8.3454240000000013
 10
19.6668249999999993
 20
-8.3755370000000013
 10
19.3789860000000012
 20
-8.3969860000000054
 10
19.3204540000000016
 20
-8.5308160000000015
 10
18.4508989999999997
 20
-10.2770940000000053
 10
18.3793840000000017
 20
-10.4044610000000048
 10
18.535734999999999
 20
-10.6470870000000062
 10
18.6868079999999992
 20
-10.8970800000000025
 10
18.8326320000000003
 20
-11.1542120000000011
 10
18.9731789999999982
 20
-11.4182030000000054
 10
19.1083919999999985
 20
-11.6888540000000063
 10
19.0448640000000005
 20
-11.7920910000000063
 10
18.9807710000000007
 20
-11.8949610000000021
 10
18.6782290000000017
 20
-11.8945660000000046
 10
18.3792709999999992
 20
-11.886410000000005
 10
18.0840940000000003
 20
-11.8704920000000058
 10
17.7929540000000017
 20
-11.8466730000000027
 10
17.5060749999999992
 20
-11.8148949999999999
 10
17.4239479999999993
 20
-11.935686000000004
 10
16.2483240000000002
 20
-13.4924520000000001
 10
16.1546260000000004
 20
-13.6044940000000025
 10
16.2637329999999984
 20
-13.8717299999999994
 10
16.3662920000000014
 20
-14.145232
 10
16.4623890000000017
 20
-14.4247730000000018
 10
16.5520229999999984
 20
-14.7101000000000042
 10
16.6352219999999988
 20
-15.0009860000000046
 10
16.553801
 20
-15.0907890000000009
 10
16.4719000000000015
 20
-15.1801410000000061
 10
16.1745790000000014
 20
-15.1241480000000053
 10
15.8821969999999997
 20
-15.0612120000000047
 10
15.5949790000000004
 20
-14.9913060000000016
 10
15.3131799999999991
 20
-14.9144280000000009
 10
15.0370259999999991
 20
-14.8304390000000055
 10
14.9340989999999998
 20
-14.9340990000000033
 10
13.4924520000000001
 20
-16.2483240000000038
 10
13.3797320000000006
 20
-16.3412590000000009
 10
13.4378700000000002
 20
-16.6239900000000063
 10
13.4884439999999994
 20
-16.9116870000000006
 10
13.5315399999999997
 20
-17.2041260000000023
 10
13.5672119999999996
 20
-17.5010520000000014
 10
13.5955480000000009
 20
-17.8022960000000054
 10
13.4990279999999991
 20
-17.8755890000000051
 10
13.4021120000000007
 20
-17.9483740000000012
 10
13.1201159999999994
 20
-17.8387020000000049
 10
12.8443000000000005
 20
-17.7231040000000064
 10
12.5748060000000006
 20
-17.6016360000000063
 10
12.3119160000000001
 20
-17.4742689999999996
 10
12.0559119999999993
 20
-17.3409750000000003
 10
11.9356860000000005
 20
-17.4239480000000029
 10
10.277094
 20
-18.4508990000000033
 10
10.1492190000000004
 20
-18.5215390000000042
 10
10.1544120000000007
 20
-18.8101390000000031
 10
10.1512510000000002
 20
-19.1022390000000044
 10
10.1398779999999995
 20
-19.3976130000000033
 10
10.1204040000000006
 20
-19.696035000000002
 10
10.0928880000000003
 20
-19.9973350000000032
 10
9.9845419999999994
 20
-20.0516630000000013
 10
9.8758870000000005
 20
-20.1053980000000045
 10
9.6188669999999998
 20
-19.9457730000000026
 10
9.3689879999999999
 20
-19.7814640000000033
 10
9.1264179999999993
 20
-19.6125540000000029
 10
8.8914109999999997
 20
-19.4390430000000016
 10
8.6642220000000005
 20
-19.2609890000000021
 10
8.5308159999999997
 20
-19.3204540000000016
 10
6.7117519999999997
 20
-20.0251620000000017
 10
6.5730969999999997
 20
-20.071080000000002
 10
6.5251749999999999
 20
-20.3557290000000037
 10
6.4683919999999997
 20
-20.6422700000000034
 10
6.4029449999999999
 20
-20.930531000000002
 10
6.3289460000000002
 20
-21.2202890000000046
 10
6.246537
 20
-21.5114010000000029
 10
6.130064
 20
-21.544901000000003
 10
6.0133939999999999
 20
-21.5777520000000038
 10
5.7900710000000002
 20
-21.3736200000000025
 10
5.5746229999999999
 20
-21.1662150000000047
 10
5.3672180000000003
 20
-20.9555930000000039
 10
5.1681100000000004
 20
-20.7418380000000013
 10
4.9774969999999996
 20
-20.5250630000000029
 10
4.835426
 20
-20.5590140000000012
 10
2.9178670000000002
 20
-20.9174640000000025
 10
2.7731159999999999
 20
-20.9371350000000014
 10
2.6737169999999999
 20
-21.2081250000000026
 10
2.5652590000000002
 20
-21.4793690000000019
 10
2.4479389999999999
 20
-21.750669000000002
 10
2.321955
 20
-22.0219130000000014
 10
2.1874760000000002
 20
-22.2929310000000029
 10
2.0667979999999999
 20
-22.3044460000000022
 10
1.9460919999999999
 20
-22.3153110000000012
 10
1.764086
 20
-22.0736160000000012
 10
1.5904069999999999
 20
-21.8301430000000032
 10
1.4252499999999999
 20
-21.5850050000000024
 10
1.268786
 20
-21.338314000000004
 10
1.121297
 20
-21.0902130000000021
 10
0.975388
 20
-21.0974660000000043
 10
-0.975388
 20
-21.0974660000000043
 10
-1.121297
 20
-21.0902130000000021
 10
-1.268786
 20
-21.338314000000004
 10
-1.4252499999999999
 20
-21.5850050000000024
 10
-1.5904069999999999
 20
-21.8301430000000032
 10
-1.764086
 20
-22.0736160000000012
 10
-1.9460919999999999
 20
-22.3153110000000012
 10
-2.0667979999999999
 20
-22.3044460000000022
 10
-2.1874760000000002
 20
-22.2929310000000029
 10
-2.321955
 20
-22.0219130000000014
 10
-2.4479389999999999
 20
-21.750669000000002
 10
-2.5652590000000002
 20
-21.4793690000000019
 10
-2.6737169999999999
 20
-21.2081250000000026
 10
-2.7731159999999999
 20
-20.9371350000000014
 10
-2.9178670000000002
 20
-20.9174640000000025
 10
-4.835426
 20
-20.5590140000000012
 10
-4.9774969999999996
 20
-20.5250630000000029
 10
-5.1681100000000004
 20
-20.7418380000000013
 10
-5.3672180000000003
 20
-20.9555930000000039
 10
-5.5746229999999999
 20
-21.1662150000000047
 10
-5.7900710000000002
 20
-21.3736200000000025
 10
-6.0133939999999999
 20
-21.5777520000000038
 10
-6.130064
 20
-21.544901000000003
 10
-6.246537
 20
-21.5114010000000029
 10
-6.3289460000000002
 20
-21.2202890000000046
 10
-6.4029449999999999
 20
-20.930531000000002
 10
-6.4683919999999997
 20
-20.6422700000000034
 10
-6.5251749999999999
 20
-20.3557290000000037
 10
-6.5730969999999997
 20
-20.071080000000002
 10
-6.7117519999999997
 20
-20.0251620000000017
 10
-8.5308159999999997
 20
-19.3204540000000016
 10
-8.6642220000000005
 20
-19.2609890000000021
 10
-8.8914109999999997
 20
-19.4390430000000016
 10
-9.1264179999999993
 20
-19.6125540000000029
 10
-9.3689879999999999
 20
-19.7814640000000033
 10
-9.6188669999999998
 20
-19.9457730000000026
 10
-9.8758870000000005
 20
-20.1053980000000045
 10
-9.9845419999999994
 20
-20.0516630000000013
 10
-10.0928880000000003
 20
-19.9973350000000032
 10
-10.1204040000000006
 20
-19.696035000000002
 10
-10.1398779999999995
 20
-19.3976130000000033
 10
-10.1512510000000002
 20
-19.1022390000000044
 10
-10.1544120000000007
 20
-18.8101390000000031
 10
-10.1492190000000004
 20
-18.5215390000000042
 10
-10.277094
 20
-18.4508990000000033
 10
-11.9356860000000005
 20
-17.4239480000000029
 10
-12.0559119999999993
 20
-17.3409750000000003
 10
-12.3119160000000001
 20
-17.4742689999999996
 10
-12.5748060000000006
 20
-17.6016360000000063
 10
-12.8443000000000005
 20
-17.7231040000000064
 10
-13.1201159999999994
 20
-17.8387020000000049
 10
-13.4021120000000007
 20
-17.9483740000000012
 10
-13.4990279999999991
 20
-17.8755890000000051
 10
-13.5955480000000009
 20
-17.8022960000000054
 10
-13.5672119999999996
 20
-17.5010520000000014
 10
-13.5315399999999997
 20
-17.2041260000000023
 10
-13.4884439999999994
 20
-16.9116870000000006
 10
-13.4378700000000002
 20
-16.6239900000000063
 10
-13.3797320000000006
 20
-16.3412590000000009
 10
-13.4924520000000001
 20
-16.2483240000000038
 10
-14.9340989999999998
 20
-14.9340990000000033
 10
-15.0370259999999991
 20
-14.8304390000000055
 10
-15.3131799999999991
 20
-14.9144280000000009
 10
-15.5949790000000004
 20
-14.9913060000000016
 10
-15.8821969999999997
 20
-15.0612120000000047
 10
-16.1745790000000014
 20
-15.1241480000000053
 10
-16.4719000000000015
 20
-15.1801410000000061
 10
-16.553801
 20
-15.0907890000000009
 10
-16.6352219999999988
 20
-15.0009860000000046
 10
-16.5520229999999984
 20
-14.7101000000000042
 10
-16.4623890000000017
 20
-14.4247730000000018
 10
-16.3662920000000014
 20
-14.145232
 10
-16.2637329999999984
 20
-13.8717299999999994
 10
-16.1546260000000004
 20
-13.6044940000000025
 10
-16.2483240000000002
 20
-13.4924520000000001
 10
-17.4239479999999993
 20
-11.935686000000004
 10
-17.5060749999999992
 20
-11.8148949999999999
 10
-17.7929540000000017
 20
-11.8466730000000027
 10
-18.0840940000000003
 20
-11.8704920000000058
 10
-18.3792709999999992
 20
-11.886410000000005
 10
-18.6782290000000017
 20
-11.8945660000000046
 10
-18.9807710000000007
 20
-11.8949610000000021
 10
-19.0448640000000005
 20
-11.7920910000000063
 10
-19.1083919999999985
 20
-11.6888540000000063
 10
-18.9731789999999982
 20
-11.4182030000000054
 10
-18.8326320000000003
 20
-11.1542120000000011
 10
-18.6868079999999992
 20
-10.8970800000000025
 10
-18.535734999999999
 20
-10.6470870000000062
 10
-18.3793840000000017
 20
-10.4044610000000048
 10
-18.4508989999999997
 20
-10.2770940000000053
 10
-19.3204540000000016
 20
-8.5308160000000015
 10
-19.3789860000000012
 20
-8.3969860000000054
 10
-19.6668249999999993
 20
-8.3755370000000013
 10
-19.9573730000000005
 20
-8.3454240000000013
 10
-20.2504600000000003
 20
-8.3068440000000052
 10
-20.5458059999999989
 20
-8.2599110000000024
 10
-20.8432959999999987
 20
-8.2047080000000037
 10
-20.8873800000000003
 20
-8.091819000000001
 10
-20.9308419999999984
 20
-7.9786760000000001
 10
-20.7482159999999993
 20
-7.7374890000000036
 10
-20.561554000000001
 20
-7.5038090000000039
 10
-20.3709689999999988
 20
-7.277862000000006
 10
-20.1765180000000015
 20
-7.0598740000000006
 10
-19.9782569999999993
 20
-6.8500980000000027
 10
-20.0251620000000017
 20
-6.7117520000000042
 10
-20.5590140000000012
 20
-4.8354260000000053
 10
-20.5919489999999996
 20
-4.6931300000000036
 10
-20.8709540000000011
 20
-4.6191590000000033
 10
-21.1510320000000007
 20
-4.5361860000000007
 10
-21.4320400000000006
 20
-4.4444070000000053
 10
-21.7137260000000012
 20
-4.3439930000000047
 10
-21.9960050000000003
 20
-4.2350550000000027
 10
-22.0186109999999999
 20
-4.115985000000002
 10
-22.04054
 20
-3.9968029999999999
 10
-21.8166809999999991
 20
-3.7932640000000006
 10
-21.5902819999999984
 20
-3.5978540000000052
 10
-21.3613999999999997
 20
-3.4107970000000023
 10
-21.1302039999999991
 20
-3.2322350000000029
 10
-20.8967780000000012
 20
-3.0624500000000054
 10
-20.9174639999999989
 20
-2.9178670000000011
 10
-21.0974660000000007
 20
-0.9753880000000024
 10
-21.1037029999999994
 20
-0.8294510000000059
 10
-21.3643630000000009
 20
-0.7054710000000028
 10
-21.6244310000000013
 20
-0.5724310000000017
 10
-21.8837650000000004
 20
-0.4305860000000052
 10
-22.1422239999999988
 20
-0.2801340000000039
 10
-22.3996670000000009
 20
-0.1211860000000016
 10
-22.4000060000000012
 20
0.0
 10
-22.3996670000000009
 20
0.1211859999999945
 10
-22.1422239999999988
 20
0.2801339999999968
 10
-21.8837650000000004
 20
0.4305859999999981
 10
-21.6244310000000013
 20
0.5724309999999946
 10
-21.3643630000000009
 20
0.7054709999999957
 10
-21.1037029999999994
 20
0.8294509999999988
 10
-21.0974660000000007
 20
0.9753879999999953
 10
-20.9174639999999989
 20
2.917866999999994
 10
-20.8967780000000012
 20
3.0624499999999983
 10
-21.1302039999999991
 20
3.2322349999999958
 10
-21.3613999999999997
 20
3.4107969999999952
 10
-21.5902819999999984
 20
3.5978539999999981
 10
-21.8166809999999991
 20
3.7932639999999935
 10
-22.04054
 20
3.9968029999999999
 10
-22.0186109999999999
 20
4.1159849999999949
 10
-21.9960050000000003
 20
4.2350549999999956
 10
-21.7137260000000012
 20
4.3439929999999976
 10
-21.4320400000000006
 20
4.4444069999999982
 10
-21.1510320000000007
 20
4.5361859999999936
 10
-20.8709540000000011
 20
4.6191589999999962
 10
-20.5919489999999996
 20
4.6931299999999965
 10
-20.5590140000000012
 20
4.8354259999999982
 10
-20.0251620000000017
 20
6.7117519999999971
 10
-19.9782569999999993
 20
6.8500979999999956
 10
-20.1765180000000015
 20
7.0598739999999935
 10
-20.3709689999999988
 20
7.2778619999999989
 10
-20.561554000000001
 20
7.5038089999999968
 10
-20.7482159999999993
 20
7.7374889999999965
 10
-20.9308419999999984
 20
7.9786760000000001
 10
-20.8873800000000003
 20
8.0918189999999939
 10
-20.8432959999999987
 20
8.2047079999999966
 10
-20.5458059999999989
 20
8.2599109999999953
 10
-20.2504600000000003
 20
8.3068439999999981
 10
-19.9573730000000005
 20
8.3454239999999942
 10
-19.6668249999999993
 20
8.3755369999999942
 10
-19.3789860000000012
 20
8.3969859999999983
 10
-19.3204540000000016
 20
8.5308159999999944
 10
-18.4508989999999997
 20
10.2770939999999982
 10
-18.3793840000000017
 20
10.4044609999999977
 10
-18.535734999999999
 20
10.6470869999999991
 10
-18.6868079999999992
 20
10.8970799999999954
 10
-18.8326320000000003
 20
11.154211999999994
 10
-18.9731789999999982
 20
11.4182029999999983
 10
-19.1083919999999985
 20
11.6888539999999992
 10
-19.0448640000000005
 20
11.7920909999999992
 10
-18.9807710000000007
 20
11.894960999999995
 10
-18.6782290000000017
 20
11.8945659999999975
 10
-18.3792709999999992
 20
11.8864099999999979
 10
-18.0840940000000003
 20
11.8704919999999987
 10
-17.7929540000000017
 20
11.8466729999999956
 10
-17.5060749999999992
 20
11.8148949999999999
 10
-17.4239479999999993
 20
11.9356859999999969
 10
-16.2483240000000002
 20
13.4924520000000001
 10
-16.1546260000000004
 20
13.6044939999999954
 10
-16.2637329999999984
 20
13.8717299999999994
 10
-16.3662920000000014
 20
14.145232
 10
-16.4623890000000017
 20
14.4247729999999947
 10
-16.5520229999999984
 20
14.71009999999999
 10
-16.6352219999999988
 20
15.0009859999999904
 10
-16.553801
 20
15.0907889999999938
 10
-16.4719000000000015
 20
15.180140999999999
 10
-16.1745790000000014
 20
15.1241479999999981
 10
-15.8821969999999997
 20
15.0612119999999905
 10
-15.5949790000000004
 20
14.9913060000000016
 10
-15.3131799999999991
 20
14.9144279999999938
 10
-15.0370259999999991
 20
14.8304389999999913
 10
-14.9340989999999998
 20
14.9340989999999962
 10
-13.4924520000000001
 20
16.2483240000000038
 10
-13.3797320000000006
 20
16.3412590000000009
 10
-13.4378700000000002
 20
16.6239899999999992
 10
-13.4884439999999994
 20
16.9116869999999935
 10
-13.5315399999999997
 20
17.2041259999999951
 10
-13.5672119999999996
 20
17.5010519999999943
 10
-13.5955480000000009
 20
17.8022959999999912
 10
-13.4990279999999991
 20
17.875588999999998
 10
-13.4021120000000007
 20
17.9483739999999941
 10
-13.1201159999999994
 20
17.8387019999999907
 10
-12.8443000000000005
 20
17.7231039999999993
 10
-12.5748060000000006
 20
17.6016359999999921
 10
-12.3119160000000001
 20
17.4742689999999996
 10
-12.0559119999999993
 20
17.3409749999999931
 10
-11.9356860000000005
 20
17.4239480000000029
 10
-10.277094
 20
18.4508989999999997
 10
-10.1492190000000004
 20
18.5215389999999971
 10
-10.1544120000000007
 20
18.8101389999999995
 10
-10.1512510000000002
 20
19.1022389999999902
 10
-10.1398779999999995
 20
19.3976129999999998
 10
-10.1204040000000006
 20
19.696035000000002
 10
-10.0928880000000003
 20
19.9973349999999996
 10
-9.9845419999999994
 20
20.0516629999999978
 10
-9.8758870000000005
 20
20.105398000000001
 10
-9.6188669999999998
 20
19.9457729999999955
 10
-9.3689879999999999
 20
19.7814639999999926
 10
-9.1264179999999993
 20
19.6125539999999958
 10
-8.8914109999999997
 20
19.439042999999991
 10
-8.6642220000000005
 20
19.2609890000000021
 10
-8.5308159999999997
 20
19.3204539999999909
 10
-6.7117519999999997
 20
20.0251620000000017
 10
-6.5730969999999997
 20
20.071080000000002
 10
-6.5251749999999999
 20
20.3557290000000037
 10
-6.4683919999999997
 20
20.6422700000000034
 10
-6.4029449999999999
 20
20.9305309999999949
 10
-6.3289460000000002
 20
21.2202890000000011
 10
-6.246537
 20
21.5114009999999993
 10
-6.130064
 20
21.544901000000003
 10
-6.0133939999999999
 20
21.5777519999999967
 10
-5.7900710000000002
 20
21.3736199999999954
 10
-5.5746229999999999
 20
21.1662150000000011
 10
-5.3672180000000003
 20
20.9555930000000004
 10
-5.1681100000000004
 20
20.7418379999999942
 10
-4.9774969999999996
 20
20.5250629999999958
 10
-4.835426
 20
20.5590139999999977
 10
-2.9178670000000002
 20
20.9174640000000025
 10
-2.7731159999999999
 20
20.9371349999999907
 10
-2.6737169999999999
 20
21.2081250000000026
 10
-2.5652590000000002
 20
21.4793689999999984
 10
-2.4479389999999999
 20
21.7506689999999949
 10
-2.321955
 20
22.0219129999999907
 10
-2.1874760000000002
 20
22.2929310000000029
 10
-2.0667979999999999
 20
22.3044459999999916
 10
-1.9460919999999999
 20
22.3153110000000012
 10
-1.764086
 20
22.0736159999999941
 10
-1.5904069999999999
 20
21.8301429999999996
 10
-1.4252499999999999
 20
21.5850050000000024
 10
-1.268786
 20
21.338314000000004
 10
-1.121297
 20
21.0902129999999985
 10
-0.975388
 20
21.0974659999999901
 10
0.975388
 20
21.0974659999999901
 10
1.121297
 20
21.0902129999999985
 10
1.268786
 20
21.338314000000004
 10
1.4252499999999999
 20
21.5850050000000024
 10
1.5904069999999999
 20
21.8301429999999996
 10
1.764086
 20
22.0736159999999941
 10
1.9460919999999999
 20
22.3153110000000012
 10
2.0667979999999999
 20
22.3044459999999916
 10
2.1874760000000002
 20
22.2929310000000029
 10
2.321955
 20
22.0219129999999907
 10
2.4479389999999999
 20
21.7506689999999949
 10
2.5652590000000002
 20
21.4793689999999984
 10
2.6737169999999999
 20
21.2081250000000026
 10
2.7731159999999999
 20
20.9371349999999907
 10
2.9178670000000002
 20
20.9174640000000025
 10
4.835426
 20
20.5590139999999977
 10
4.9774969999999996
 20
20.5250629999999958
 10
5.1681100000000004
 20
20.7418379999999942
 10
5.3672180000000003
 20
20.9555930000000004
 10
5.5746229999999999
 20
21.1662150000000011
 10
5.7900710000000002
 20
21.3736199999999954
 10
6.0133939999999999
 20
21.5777519999999967
 10
6.130064
 20
21.544901000000003
 10
6.246537
 20
21.5114009999999993
 10
6.3289460000000002
 20
21.2202890000000011
 10
6.4029449999999999
 20
20.9305309999999949
 10
6.4683919999999997
 20
20.6422700000000034
 10
6.5251749999999999
 20
20.3557290000000037
 10
6.5730969999999997
 20
20.071080000000002
 10
6.7117519999999997
 20
20.0251620000000017
 10
8.5308159999999997
 20
19.3204539999999909
 10
8.6642220000000005
 20
19.2609890000000021
 10
8.8914109999999997
 20
19.439042999999991
 10
9.1264179999999993
 20
19.6125539999999958
 10
9.3689879999999999
 20
19.7814639999999926
 10
9.6188669999999998
 20
19.9457729999999955
 10
9.8758870000000005
 20
20.105398000000001
 10
9.9845419999999994
 20
20.0516629999999978
 10
10.0928880000000003
 20
19.9973349999999996
 10
10.1204040000000006
 20
19.696035000000002
 10
10.1398779999999995
 20
19.3976129999999998
 10
10.1512510000000002
 20
19.1022389999999902
 10
10.1544120000000007
 20
18.8101389999999995
 10
10.1492190000000004
 20
18.5215389999999971
 10
10.277094
 20
18.4508989999999997
 10
11.9356860000000005
 20
17.4239480000000029
 10
12.0559119999999993
 20
17.3409749999999931
 10
12.3119160000000001
 20
17.4742689999999996
 10
12.5748060000000006
 20
17.6016359999999921
 10
12.8443000000000005
 20
17.7231039999999993
 10
13.1201159999999994
 20
17.8387019999999907
 10
13.4021120000000007
 20
17.9483739999999941
 10
13.4990279999999991
 20
17.875588999999998
 10
13.5955480000000009
 20
17.8022959999999912
 10
13.5672119999999996
 20
17.5010519999999943
 10
13.5315399999999997
 20
17.2041259999999951
 10
13.4884439999999994
 20
16.9116869999999935
 10
13.4378700000000002
 20
16.6239899999999992
 10
13.3797320000000006
 20
16.3412590000000009
 10
13.4924520000000001
 20
16.2483240000000038
 10
14.9340989999999998
 20
14.9340989999999962
 10
15.0370259999999991
 20
14.8304389999999913
 10
15.3131799999999991
 20
14.9144279999999938
 10
15.5949790000000004
 20
14.9913060000000016
 10
15.8821969999999997
 20
15.0612119999999905
 10
16.1745790000000014
 20
15.1241479999999981
 10
16.4719000000000015
 20
15.180140999999999
 10
16.553801
 20
15.0907889999999938
 10
16.6352219999999988
 20
15.0009859999999904
 10
16.5520229999999984
 20
14.71009999999999
 10
16.4623890000000017
 20
14.4247729999999947
 10
16.3662920000000014
 20
14.145232
 10
16.2637329999999984
 20
13.8717299999999994
 10
16.1546260000000004
 20
13.6044939999999954
 10
16.2483240000000002
 20
13.4924520000000001
 10
17.4239479999999993
 20
11.9356859999999969
 10
17.5060749999999992
 20
11.8148949999999999
 10
17.7929540000000017
 20
11.8466729999999956
 10
18.0840940000000003
 20
11.8704919999999987
 10
18.3792709999999992
 20
11.8864099999999979
 10
18.6782290000000017
 20
11.8945659999999975
 10
18.9807710000000007
 20
11.894960999999995
 10
19.0448640000000005
 20
11.7920909999999992
 10
19.1083919999999985
 20
11.6888539999999992
 10
18.9731789999999982
 20
11.4182029999999983
 10
18.8326320000000003
 20
11.154211999999994
 10
18.6868079999999992
 20
10.8970799999999954
 10
18.535734999999999
 20
10.6470869999999991
 10
18.3793840000000017
 20
10.4044609999999977
 10
18.4508989999999997
 20
10.2770939999999982
 10
19.3204540000000016
 20
8.5308159999999944
 10
19.3789860000000012
 20
8.3969859999999983
 10
19.6668249999999993
 20
8.3755369999999942
 10
19.9573730000000005
 20
8.3454239999999942
 10
20.2504600000000003
 20
8.3068439999999981
 10
20.5458059999999989
 20
8.2599109999999953
 10
20.8432959999999987
 20
8.2047079999999966
 10
20.8873800000000003
 20
8.0918189999999939
 10
20.9308419999999984
 20
7.9786760000000001
 10
20.7482159999999993
 20
7.7374889999999965
 10
20.561554000000001
 20
7.5038089999999968
 10
20.3709689999999988
 20
7.2778619999999989
 10
20.1765180000000015
 20
7.0598739999999935
 10
19.9782569999999993
 20
6.8500979999999956
 10
20.0251620000000017
 20
6.7117519999999971
 10
20.5590140000000012
 20
4.8354259999999982
 10
20.5919489999999996
 20
4.6931299999999965
 10
20.8709540000000011
 20
4.6191589999999962
 10
21.1510320000000007
 20
4.5361859999999936
 10
21.4320400000000006
 20
4.4444069999999982
 10
21.7137260000000012
 20
4.3439929999999976
 10
21.9960050000000003
 20
4.2350549999999956
 10
22.0186109999999999
 20
4.1159849999999949
 10
22.04054
 20
3.9968029999999999
 10
21.8166809999999991
 20
3.7932639999999935
 10
21.5902819999999984
 20
3.5978539999999981
 10
21.3613999999999997
 20
3.4107969999999952
 10
21.1302039999999991
 20
3.2322349999999958
 10
20.8967780000000012
 20
3.0624499999999983
 10
20.9174639999999989
 20
2.917866999999994
 10
21.0974660000000007
 20
0.9753879999999953
 10
21.1037029999999994
 20
0.8294509999999988
  0
LWPOLYLINE
  5
46
  8
Gear68
 62
0
370
-1
  6
ByLayer
100
AcDbEntity
100
AcDbPolyline
 90
5
 70
0
 10
14.9478259999999992
 20
-1.25
 10
14.9229959999999995
 20
-1.517940000000003
 10
18.4913559999999997
 20
-2.1849810000000005
 10
18.5779950000000014
 20
-1.25
 10
14.9478259999999992
 20
-1.25
  0
LWPOLYLINE
  5
47
  8
Gear68
 62
0
370
-1
  6
ByLayer
100
AcDbEntity
100
AcDbPolyline
 90
5
 70
0
 10
14.4636239999999994
 20
-3.9753720000000001
 10
14.3899849999999994
 20
-4.2341870000000057
 10
17.7750160000000008
 20
-5.5455560000000048
 10
18.0319819999999993
 20
-4.6424140000000023
 10
14.4636239999999994
 20
-3.9753720000000001
  0
LWPOLYLINE
  5
48
  8
Gear68
 62
0
370
-1
  6
ByLayer
100
AcDbEntity
100
AcDbPolyline
 90
5
 70
0
 10
13.4868799999999993
 20
-6.5653680000000065
 10
13.3669379999999993
 20
-6.8062450000000041
 10
16.4533699999999996
 20
-8.7172830000000019
 10
16.8719119999999982
 20
-7.8767360000000011
 10
13.4868799999999993
 20
-6.5653680000000065
  0
LWPOLYLINE
  5
49
  8
Gear68
 62
0
370
-1
  6
ByLayer
100
AcDbEntity
100
AcDbPolyline
 90
5
 70
0
 10
12.0508579999999998
 20
-8.9317880000000045
 10
11.8886959999999995
 20
-9.1465240000000065
 10
14.5714229999999993
 20
-11.5921530000000033
 10
15.1372890000000009
 20
-10.8428250000000048
 10
12.0508579999999998
 20
-8.9317880000000045
  0
LWPOLYLINE
  5
4A
  8
Gear68
 62
0
370
-1
  6
ByLayer
100
AcDbEntity
100
AcDbPolyline
 90
5
 70
0
 10
10.2044569999999997
 20
-10.9940460000000044
 10
10.0055990000000001
 20
-11.175329000000005
 10
12.1932650000000002
 20
-14.0722660000000062
 10
12.8871839999999995
 20
-13.4396750000000011
 10
10.2044569999999997
 20
-10.9940460000000044
  0
LWPOLYLINE
  5
4B
  8
Gear68
 62
0
370
-1
  6
ByLayer
100
AcDbEntity
100
AcDbPolyline
 90
5
 70
0
 10
8.0105559999999993
 20
-12.6819160000000011
 10
7.7817730000000003
 20
-12.8235720000000057
 10
9.3998790000000003
 20
-16.0731660000000005
 10
10.1982210000000002
 20
-15.5788530000000023
 10
8.0105559999999993
 20
-12.6819160000000011
  0
LWPOLYLINE
  5
4C
  8
Gear68
 62
0
370
-1
  6
ByLayer
100
AcDbEntity
100
AcDbPolyline
 90
5
 70
0
 10
5.5438650000000003
 20
-13.9379180000000034
 10
5.2929490000000001
 20
-14.0351240000000033
 10
6.2863920000000002
 20
-17.5267130000000009
 10
7.1619710000000003
 20
-17.1875120000000052
 10
5.5438650000000003
 20
-13.9379180000000034
  0
LWPOLYLINE
  5
4D
  8
Gear68
 62
0
370
-1
  6
ByLayer
100
AcDbEntity
100
AcDbPolyline
 90
5
 70
0
 10
2.888385
 20
-14.7192810000000023
 10
2.6238790000000001
 20
-14.7687260000000009
 10
2.9588290000000002
 20
-18.3834090000000039
 10
3.8818280000000001
 20
-18.2108700000000034
 10
2.888385
 20
-14.7192810000000023
  0
LWPOLYLINE
  5
4E
  8
Gear68
 62
0
370
-1
  6
ByLayer
100
AcDbEntity
100
AcDbPolyline
 90
5
 70
0
 10
0.134544
 20
-14.9993970000000019
 10
-0.134544
 20
-14.9993970000000019
 10
-0.469493
 20
-18.6140800000000013
 10
0.469493
 20
-18.6140800000000013
 10
0.134544
 20
-14.9993970000000019
  0
LWPOLYLINE
  5
4F
  8
Gear68
 62
0
370
-1
  6
ByLayer
100
AcDbEntity
100
AcDbPolyline
 90
5
 70
0
 10
-2.6238790000000001
 20
-14.7687260000000009
 10
-2.888385
 20
-14.7192810000000023
 10
-3.8818280000000001
 20
-18.2108700000000034
 10
-2.9588290000000002
 20
-18.3834090000000039
 10
-2.6238790000000001
 20
-14.7687260000000009
  0
LWPOLYLINE
  5
50
  8
Gear68
 62
0
370
-1
  6
ByLayer
100
AcDbEntity
100
AcDbPolyline
 90
5
 70
0
 10
-5.2929490000000001
 20
-14.0351240000000033
 10
-5.5438650000000003
 20
-13.9379180000000034
 10
-7.1619710000000003
 20
-17.1875120000000052
 10
-6.2863920000000002
 20
-17.5267130000000009
 10
-5.2929490000000001
 20
-14.0351240000000033
  0
LWPOLYLINE
  5
51
  8
Gear68
 62
0
370
-1
  6
ByLayer
100
AcDbEntity
100
AcDbPolyline
 90
5
 70
0
 10
-7.7817730000000003
 20
-12.8235720000000057
 10
-8.0105559999999993
 20
-12.6819160000000011
 10
-10.1982210000000002
 20
-15.5788530000000023
 10
-9.3998790000000003
 20
-16.0731660000000005
 10
-7.7817730000000003
 20
-12.8235720000000057
  0
LWPOLYLINE
  5
52
  8
Gear68
 62
0
370
-1
  6
ByLayer
100
AcDbEntity
100
AcDbPolyline
 90
5
 70
0
 10
-10.0055990000000001
 20
-11.175329000000005
 10
-10.2044569999999997
 20
-10.9940460000000044
 10
-12.8871839999999995
 20
-13.4396750000000011
 10
-12.1932650000000002
 20
-14.0722660000000062
 10
-10.0055990000000001
 20
-11.175329000000005
  0
LWPOLYLINE
  5
53
  8
Gear68
 62
0
370
-1
  6
ByLayer
100
AcDbEntity
100
AcDbPolyline
 90
5
 70
0
 10
-11.8886959999999995
 20
-9.1465240000000065
 10
-12.0508579999999998
 20
-8.9317880000000045
 10
-15.1372890000000009
 20
-10.8428250000000048
 10
-14.5714229999999993
 20
-11.5921530000000033
 10
-11.8886959999999995
 20
-9.1465240000000065
  0
LWPOLYLINE
  5
54
  8
Gear68
 62
0
370
-1
  6
ByLayer
100
AcDbEntity
100
AcDbPolyline
 90
5
 70
0
 10
-13.3669379999999993
 20
-6.8062450000000041
 10
-13.4868799999999993
 20
-6.5653680000000065
 10
-16.8719119999999982
 20
-7.8767360000000011
 10
-16.4533699999999996
 20
-8.7172830000000019
 10
-13.3669379999999993
 20
-6.8062450000000041
  0
LWPOLYLINE
  5
55
  8
Gear68
 62
0
370
-1
  6
ByLayer
100
AcDbEntity
100
AcDbPolyline
 90
5
 70
0
 10
-14.3899849999999994
 20
-4.2341870000000057
 10
-14.4636239999999994
 20
-3.9753720000000001
 10
-18.0319819999999993
 20
-4.6424140000000023
 10
-17.7750160000000008
 20
-5.5455560000000048
 10
-14.3899849999999994
 20
-4.2341870000000057
  0
LWPOLYLINE
  5
56
  8
Gear68
 62
0
370
-1
  6
ByLayer
100
AcDbEntity
100
AcDbPolyline
 90
5
 70
0
 10
-14.9229979999999998
 20
-1.517940000000003
 10
-14.9478270000000002
 20
-1.25
 10
-18.5779959999999988
 20
-1.25
 10
-18.4913570000000007
 20
-2.1849810000000005
 10
-14.9229979999999998
 20
-1.517940000000003
  0
LWPOLYLINE
  5
57
  8
Gear68
 62
0
370
-1
  6
ByLayer
100
AcDbEntity
100
AcDbPolyline
 90
5
 70
0
 10
-14.9478270000000002
 20
1.25
 10
-14.9229979999999998
 20
1.5179399999999958
 10
-18.4913559999999997
 20
2.1849810000000005
 10
-18.5779950000000014
 20
1.25
 10
-14.9478270000000002
 20
1.25
  0
LWPOLYLINE
  5
58
  8
Gear68
 62
0
370
-1
  6
ByLayer
100
AcDbEntity
100
AcDbPolyline
 90
5
 70
0
 10
-14.4636250000000004
 20
3.9753720000000001
 10
-14.3899860000000004
 20
4.2341869999999986
 10
-17.7750179999999993
 20
5.5455550000000002
 10
-18.0319840000000013
 20
4.6424139999999952
 10
-14.4636250000000004
 20
3.9753720000000001
  0
LWPOLYLINE
  5
59
  8
Gear68
 62
0
370
-1
  6
ByLayer
100
AcDbEntity
100
AcDbPolyline
 90
5
 70
0
 10
-13.4868819999999996
 20
6.5653679999999994
 10
-13.3669390000000003
 20
6.806244999999997
 10
-16.4533710000000006
 20
8.7172819999999973
 10
-16.8719129999999993
 20
7.876735999999994
 10
-13.4868819999999996
 20
6.5653679999999994
  0
LWPOLYLINE
  5
5A
  8
Gear68
 62
0
370
-1
  6
ByLayer
100
AcDbEntity
100
AcDbPolyline
 90
5
 70
0
 10
-12.0508590000000009
 20
8.9317879999999974
 10
-11.8886979999999998
 20
9.1465239999999994
 10
-14.5714249999999996
 20
11.5921529999999962
 10
-15.1372909999999994
 20
10.8428249999999977
 10
-12.0508590000000009
 20
8.9317879999999974
  0
LWPOLYLINE
  5
5B
  8
Gear68
 62
0
370
-1
  6
ByLayer
100
AcDbEntity
100
AcDbPolyline
 90
5
 70
0
 10
-10.2044580000000007
 20
10.9940459999999973
 10
-10.0055999999999994
 20
11.1753289999999978
 10
-12.1932659999999995
 20
14.0722659999999919
 10
-12.8871859999999998
 20
13.439674999999994
 10
-10.2044580000000007
 20
10.9940459999999973
  0
LWPOLYLINE
  5
5C
  8
Gear68
 62
0
370
-1
  6
ByLayer
100
AcDbEntity
100
AcDbPolyline
 90
5
 70
0
 10
-8.0105570000000004
 20
12.681915999999994
 10
-7.7817749999999997
 20
12.8235719999999986
 10
-9.3998799999999996
 20
16.0731659999999934
 10
-10.1982230000000005
 20
15.5788530000000023
 10
-8.0105570000000004
 20
12.681915999999994
  0
LWPOLYLINE
  5
5D
  8
Gear68
 62
0
370
-1
  6
ByLayer
100
AcDbEntity
100
AcDbPolyline
 90
5
 70
0
 10
-5.5438669999999997
 20
13.9379179999999963
 10
-5.2929500000000003
 20
14.0351240000000033
 10
-6.2863930000000003
 20
17.5267129999999938
 10
-7.1619719999999996
 20
17.187511999999991
 10
-5.5438669999999997
 20
13.9379179999999963
  0
LWPOLYLINE
  5
5E
  8
Gear68
 62
0
370
-1
  6
ByLayer
100
AcDbEntity
100
AcDbPolyline
 90
5
 70
0
 10
-2.8883860000000001
 20
14.7192810000000023
 10
-2.6238800000000002
 20
14.7687259999999938
 10
-2.9588299999999998
 20
18.3834089999999932
 10
-3.8818290000000002
 20
18.2108699999999928
 10
-2.8883860000000001
 20
14.7192810000000023
  0
LWPOLYLINE
  5
5F
  8
Gear68
 62
0
370
-1
  6
ByLayer
100
AcDbEntity
100
AcDbPolyline
 90
5
 70
0
 10
-0.134545
 20
14.9993959999999973
 10
0.134542
 20
14.9993959999999973
 10
0.469493
 20
18.6140799999999942
 10
-0.469493
 20
18.6140799999999942
 10
-0.134545
 20
14.9993959999999973
  0
LWPOLYLINE
  5
60
  8
Gear68
 62
0
370
-1
  6
ByLayer
100
AcDbEntity
100
AcDbPolyline
 90
5
 70
0
 10
2.6238779999999999
 20
14.7687259999999938
 10
2.8883830000000001
 20
14.7192810000000023
 10
3.8818260000000002
 20
18.2108699999999928
 10
2.9588269999999999
 20
18.3834089999999932
 10
2.6238779999999999
 20
14.7687259999999938
  0
LWPOLYLINE
  5
61
  8
Gear68
 62
0
370
-1
  6
ByLayer
100
AcDbEntity
100
AcDbPolyline
 90
5
 70
0
 10
5.2929469999999998
 20
14.0351240000000033
 10
5.5438640000000001
 20
13.9379179999999963
 10
7.161969
 20
17.187511999999991
 10
6.2863899999999999
 20
17.5267129999999938
 10
5.2929469999999998
 20
14.0351240000000033
  0
LWPOLYLINE
  5
62
  8
Gear68
 62
0
370
-1
  6
ByLayer
100
AcDbEntity
100
AcDbPolyline
 90
5
 70
0
 10
7.7817720000000001
 20
12.8235719999999986
 10
8.0105550000000001
 20
12.681915999999994
 10
10.1982199999999992
 20
15.5788530000000023
 10
9.399877
 20
16.0731659999999934
 10
7.7817720000000001
 20
12.8235719999999986
  0
LWPOLYLINE
  5
63
  8
Gear68
 62
0
370
-1
  6
ByLayer
100
AcDbEntity
100
AcDbPolyline
 90
5
 70
0
 10
10.0055980000000009
 20
11.1753289999999978
 10
10.2044560000000004
 20
10.9940459999999973
 10
12.8871830000000003
 20
13.439674999999994
 10
12.193263
 20
14.0722659999999919
 10
10.0055980000000009
 20
11.1753289999999978
  0
LWPOLYLINE
  5
64
  8
Gear68
 62
0
370
-1
  6
ByLayer
100
AcDbEntity
100
AcDbPolyline
 90
5
 70
0
 10
11.8886950000000002
 20
9.1465239999999994
 10
12.0508559999999996
 20
8.9317879999999974
 10
15.1372879999999999
 20
10.8428249999999977
 10
14.5714220000000001
 20
11.5921529999999962
 10
11.8886950000000002
 20
9.1465239999999994
  0
LWPOLYLINE
  5
65
  8
Gear68
 62
0
370
-1
  6
ByLayer
100
AcDbEntity
100
AcDbPolyline
 90
5
 70
0
 10
13.3669370000000001
 20
6.806244999999997
 10
13.4868790000000001
 20
6.5653679999999994
 10
16.8719099999999997
 20
7.876735999999994
 10
16.4533680000000011
 20
8.7172819999999973
 10
13.3669370000000001
 20
6.806244999999997
  0
LWPOLYLINE
  5
66
  8
Gear68
 62
0
370
-1
  6
ByLayer
100
AcDbEntity
100
AcDbPolyline
 90
5
 70
0
 10
14.3899830000000009
 20
4.2341869999999986
 10
14.4636220000000009
 20
3.9753720000000001
 10
18.0319809999999983
 20
4.6424139999999952
 10
17.7750149999999998
 20
5.5455550000000002
 10
14.3899830000000009
 20
4.2341869999999986
  0
LWPOLYLINE
  5
67
  8
Gear68
 62
0
370
-1
  6
ByLayer
100
AcDbEntity
100
AcDbPolyline
 90
5
 70
0
 10
14.9229959999999995
 20
1.5179399999999958
 10
14.9478259999999992
 20
1.25
 10
18.5779950000000014
 20
1.25
 10
18.4913559999999997
 20
2.1849810000000005
 10
14.9229959999999995
 20
1.5179399999999958
  0
CIRCLE
  5
68
100
AcDbEntity
100
AcDbCircle
  8
Gear68
 62
256
370
-1
  6
ByLayer
 10
-0.0000000000000002
 20
0.0
 30
0.0
 40
0.5
  0
DIMENSION
  5
69
100
AcDbEntity
  8
sizes
 62
256
370
-1
  6
ByLayer
100
AcDbDimension
 10
22.3996670000000044
 20
29.9999999999999964
 30
0.0
 11
0.0000000000000054
 21
31.8749999999999964
 31
0.0
 70
0
 71
5
 72
1
 41
1.0
 42
0.0
  1

  3
Standard
100
AcDbAlignedDimension
 13
-22.3996670000000009
 23
0.1211859999999945
 33
0.0
 14
22.3996670000000009
 24
0.1211859999999945
 34
0.0
 50
0.0
100
AcDbRotatedDimension
  0
DIMENSION
  5
6A
100
AcDbEntity
  8
sizes
 62
256
370
-1
  6
ByLayer
100
AcDbDimension
 10
-0.5000000000000002
 20
0.0
 30
0.0
 11
0.0000000000000001
 21
1.875
 31
0.0
 70
3
 71
5
 72
1
 41
1.0
 42
0.0
  1

  3
Standard
100
AcDbDiametricDimension
 15
0.4999999999999998
 25
0.0
 35
0.0
 40
0.0
  0
MTEXT
  5
6B
100
AcDbEntity
100
AcDbMText
  8
sizes
 62
256
370
-1
  6
ByLayer
 10
-40.0
 20
40.0
 30
0.0
 40
4.0
 41
100.0
 71
1
 72
0
  1
Note: this spec can vary +- 0.1mm
  7
normallatin1
 50
0.0
 73
1
 44
1.0
  0
ENDSEC
  0
SECTION
  2
OBJECTS
  0
DICTIONARY
  5
C
100
AcDbDictionary
280
0
281
1
  3
ACAD_GROUP
350
D
  3
ACAD_LAYOUT
350
1A
  3
ACAD_MLINESTYLE
350
17
  3
ACAD_PLOTSETTINGS
350
19
  3
ACAD_PLOTSTYLENAME
350
E
  3
AcDbVariableDictionary
350
6C
  0
DICTIONARY
  5
D
100
AcDbDictionary
280
0
281
1
  0
ACDBDICTIONARYWDFLT
  5
E
100
AcDbDictionary
281
1
  3
Normal
350
F
100
AcDbDictionaryWithDefault
340
F
  0
ACDBPLACEHOLDER
  5
F
  0
DICTIONARY
  5
17
100
AcDbDictionary
280
0
281
1
  3
Standard
350
18
  0
MLINESTYLE
  5
18
100
AcDbMlineStyle
  2
STANDARD
 70
0
  3

 62
256
 51
90.0
 52
90.0
 71
2
 49
0.5
 62
256
  6
BYLAYER
 49
-0.5
 62
256
  6
BYLAYER
  0
DICTIONARY
  5
19
100
AcDbDictionary
280
0
281
1
  0
DICTIONARY
  5
1A
100
AcDbDictionary
281
1
  3
Layout1
350
1E
  3
Layout2
350
26
  3
Model
350
22
  0
LAYOUT
  5
1E
100
AcDbPlotSettings
  1

  2
C:\Program Files\AutoCAD 2002\plotters\DWF ePlot (optimized for plotting).pc3
  4

  6

 40
0.0
 41
0.0
 42
0.0
 43
0.0
 44
0.0
 45
0.0
 46
0.0
 47
0.0
 48
0.0
 49
0.0
140
0.0
141
0.0
142
1.0
143
1.0
 70
688
 72
0
 73
0
 74
5
  7

 75
16
147
1.0
148
0.0
149
0.0
100
AcDbLayout
  1
Layout1
 70
1
 71
1
 10
0.0
 20
0.0
 11
420.0
 21
297.0
 12
0.0
 22
0.0
 32
0.0
 14
100000000000000000000.0
 24
100000000000000000000.0
 34
100000000000000000000.0
 15
-100000000000000000000.0
 25
-100000000000000000000.0
 35
-100000000000000000000.0
146
0.0
 13
0.0
 23
0.0
 33
0.0
 16
1.0
 26
0.0
 36
0.0
 17
0.0
 27
1.0
 37
0.0
 76
0
330
1B
  0
LAYOUT
  5
22
100
AcDbPlotSettings
  1

  2
C:\Program Files\AutoCAD 2002\plotters\DWF ePlot (optimized for plotting).pc3
  4

  6

 40
0.0
 41
0.0
 42
0.0
 43
0.0
 44
0.0
 45
0.0
 46
0.0
 47
0.0
 48
0.0
 49
0.0
140
0.0
141
0.0
142
1.0
143
1.0
 70
1712
 72
0
 73
0
 74
0
  7

 75
0
147
1.0
148
0.0
149
0.0
100
AcDbLayout
  1
Model
 70
1
 71
0
 10
0.0
 20
0.0
 11
12.0
 21
9.0
 12
0.0
 22
0.0
 32
0.0
 14
0.0
 24
0.0
 34
0.0
 15
0.0
 25
0.0
 35
0.0
146
0.0
 13
0.0
 23
0.0
 33
0.0
 16
1.0
 26
0.0
 36
0.0
 17
0.0
 27
1.0
 37
0.0
 76
0
330
1F
  0
LAYOUT
  5
26
100
AcDbPlotSettings
  1

  2
C:\Program Files\AutoCAD 2002\plotters\DWF ePlot (optimized for plotting).pc3
  4

  6

 40
0.0
 41
0.0
 42
0.0
 43
0.0
 44
0.0
 45
0.0
 46
0.0
 47
0.0
 48
0.0
 49
0.0
140
0.0
141
0.0
142
1.0
143
1.0
 70
688
 72
0
 73
0
 74
5
  7

 75
16
147
1.0
148
0.0
149
0.0
100
AcDbLayout
  1
Layout2
 70
1
 71
2
 10
0.0
 20
0.0
 11
12.0
 21
9.0
 12
0.0
 22
0.0
 32
0.0
 14
0.0
 24
0.0
 34
0.0
 15
0.0
 25
0.0
 35
0.0
146
0.0
 13
0.0
 23
0.0
 33
0.0
 16
1.0
 26
0.0
 36
0.0
 17
0.0
 27
1.0
 37
0.0
 76
0
330
23
  0
DICTIONARY
  5
6C
100
AcDbDictionary
281
1
  3
DIMASSOC
350
6E
  3
HIDETEXT
350
6D
  0
DICTIONARYVAR
  5
6D
100
DictionaryVariables
280
0
  1
2
  0
DICTIONARYVAR
  5
6E
100
DictionaryVariables
280
0
  1
1
  0
ENDSEC
  0
EOF
